    <svg viewBox="0 0 30 30" xmlns="http://www.w3.org/2000/svg" stroke="black" stroke-width="1">
    <polygon points="0,0 0,10 10,10 10,0" fill="white" />
    <polygon points="10,0 20,0 20,10 10,10" fill="white" />
    <polygon points="20,0 30,0 30,10 20,10" fill="white" />
    <polygon points="0,10 0,20 10,20 10,10" fill="white" />
    <polygon points="10,10 10,20 20,20 20,10" fill="white" />
    <polygon points="20,10 20,20 30,20 30,10" fill="white" />
    <polygon points="0,20 0,30 10,30 10,20" fill="white" />
    <polygon points="10,20 10,30 20,30 20,20" fill="white" />
    <polygon points="20,20 20,30 30,30 30,20" fill="white" />
  </svg>
