<?xml version="1.0" standalone="no"?>
<!DOCTYPE svg PUBLIC "-//W3C//DTD SVG 20010904//EN"
 "http://www.w3.org/TR/2001/REC-SVG-20010904/DTD/svg10.dtd">
<svg version="1.0" xmlns="http://www.w3.org/2000/svg"
 width="700.000000pt" height="700.000000pt" viewBox="0 0 700.000000 700.000000"
 preserveAspectRatio="xMidYMid meet">
<metadata>
Created by potrace 1.14, written by Peter Selinger 2001-2017
</metadata>
<g transform="translate(0.000000,700.000000) scale(0.100000,-0.100000)"
fill="#000000" stroke="none">
<path d="M608 6995 c-2 -2 -22 -6 -44 -9 -21 -3 -57 -12 -79 -20 -202 -72
-330 -188 -421 -379 -62 -132 -62 -130 -63 -904 l-1 -703 27 0 c240 -4 1986 0
1990 3 4 4 7 1761 4 1980 l-1 37 -704 0 c-387 0 -705 -2 -708 -5z"/>
<path d="M2490 5990 c0 -955 1 -1010 18 -1010 16 -1 1614 -1 1875 0 l127 0 0
1010 0 1010 -1010 0 -1010 0 0 -1010z"/>
<path d="M4979 6973 c-3 -153 0 -1985 4 -1989 4 -4 1346 -7 1955 -4 l62 0 -1
708 c-1 670 -2 711 -20 781 -58 217 -211 393 -417 480 -115 48 -151 50 -889
51 l-693 0 -1 -27z"/>
<path d="M0 3500 l0 -1010 1010 0 1010 0 1 38 c0 48 0 1965 0 1975 -1 4 -455
7 -1011 7 l-1010 0 0 -1010z"/>
<path d="M2490 3500 l0 -1010 1010 0 1010 0 0 1010 0 1010 -1010 0 -1010 0 0
-1010z"/>
<path d="M4979 4503 c0 -11 0 -1929 0 -1975 l1 -38 1010 0 1010 0 0 1010 0
1010 -1010 0 c-555 0 -1010 -3 -1011 -7z"/>
<path d="M127 2022 l-128 -3 4 -727 c3 -701 4 -729 24 -788 80 -237 229 -388
468 -473 l70 -25 728 -3 727 -4 1 33 c3 181 0 1981 -4 1984 -6 6 -1672 11
-1890 6z"/>
<path d="M2573 2022 l-83 -3 0 -1009 0 -1010 1010 0 1010 0 0 1010 0 1010
-112 0 c-885 4 -1760 4 -1825 2z"/>
<path d="M5018 2022 c-21 -2 -38 -9 -39 -15 0 -16 0 -1979 0 -1995 1 -11 136
-12 729 -10 l727 4 77 26 c238 84 410 270 467 506 18 71 19 127 20 780 1 386
-2 702 -6 702 -62 3 -1949 4 -1975 2z"/>
</g>
</svg>
