<svg width="88" height="16" viewBox="0 0 88 16" fill="none" xmlns="http://www.w3.org/2000/svg">
<path d="M87.7041 15.3733C87.7041 14.4133 87.1637 14.0667 86.276 14.0667H79.5345C76.3696 14.0667 75.2503 12.04 75.1088 10.64H84.462C87.1895 10.64 88 8.6 88 7.29333C88 5.89333 87.1251 3.94667 84.462 3.94667H79.4059C74.8 3.94667 73.2947 7.18667 73.2947 9.82667C73.2947 12.72 75.0187 15.7067 79.393 15.7067H87.7041V15.3733ZM79.5474 5.58667H84.2304C85.8515 5.58667 86.2374 6.62667 86.2374 7.30667C86.2374 7.90667 85.8772 9.02667 84.2304 9.02667H75.1088C75.2246 7.84 76.1637 5.58667 79.5474 5.58667ZM60.4678 14.96C59.9918 15.64 59.6573 15.88 59.2327 15.88C58.6409 15.88 58.4222 15.5467 57.9977 14.96C56.9813 13.52 50.214 3.94667 50.214 3.94667H51.2561C52.3883 3.94667 52.7099 4.36 53.1731 5.04C53.3789 5.33333 59.2585 13.9333 59.2585 13.9333C59.2585 13.9333 65.138 5.34667 65.3696 5C65.807 4.36 66.1415 3.94667 67.2737 3.94667H68.1871C68.1871 3.94667 61.3041 13.7867 60.4678 14.96ZM16.1076 15.7067C15.4 15.7067 14.9497 15.3467 14.8211 14.56L14.5895 13.28C14.2035 14.0133 12.7883 15.7067 9.71345 15.7067H6.17544C1.36374 15.7067 0 12.32 0 9.82667C0 7.01333 1.63392 3.94667 6.17544 3.94667H9.71345C13.1614 3.94667 15.0655 6.02667 15.5287 8.56C15.9146 10.68 16.8152 15.7067 16.8152 15.7067H16.1076ZM9.31462 5.58667H6.29123C2.89474 5.58667 1.73684 7.82667 1.73684 9.82667C1.73684 11.8267 2.89474 14.0667 6.29123 14.0667H9.31462C12.8655 14.0667 13.8947 11.7333 13.8947 9.82667C13.8947 8.12 12.9684 5.58667 9.31462 5.58667ZM70.4901 2.6C70.9918 2.6 71.3778 2.28 71.3778 1.66667V1.28C71.3778 0.666667 70.979 0.346667 70.4901 0.346667C70.0012 0.346667 69.6023 0.653333 69.6023 1.28V1.66667C69.5895 2.28 69.9883 2.6 70.4901 2.6ZM69.6152 3.94667H70.0269C70.8374 3.94667 71.352 4.32 71.352 5.46667V15.7067H70.9146C70.0269 15.7067 69.6023 15.2133 69.6023 14.2267C69.6152 14.08 69.6152 3.94667 69.6152 3.94667ZM19.4784 5.48C20.2246 4.74667 21.5626 3.94667 23.6725 3.94667H27.2105C32.0222 3.94667 33.386 7.33333 33.386 9.82667C33.386 12.64 31.752 15.7067 27.2105 15.7067H23.6725C20.2246 15.7067 17.7415 13.4 17.7415 9.82667V0H18.2819C19.0538 0 19.4784 0.413333 19.4784 1.16V5.48ZM24.0585 14.0667H27.0819C30.4784 14.0667 31.6363 11.8267 31.6363 9.82667C31.6363 7.82667 30.4784 5.58667 27.0819 5.58667H24.0585C20.5076 5.58667 19.4784 7.92 19.4784 9.82667C19.4784 11.5333 20.3918 14.0667 24.0585 14.0667ZM36.8725 5.48C37.6187 4.74667 38.9567 3.94667 41.0667 3.94667H44.6047C49.4164 3.94667 50.7801 7.33333 50.7801 9.82667C50.7801 12.64 49.1462 15.7067 44.6047 15.7067H41.0667C37.6187 15.7067 35.1357 13.4 35.1357 9.82667V0H35.676C36.448 0 36.8725 0.413333 36.8725 1.16V5.48ZM41.4526 14.0667H44.476C47.8725 14.0667 49.0304 11.8267 49.0304 9.82667C49.0304 7.82667 47.8725 5.58667 44.476 5.58667H41.4526C37.9018 5.58667 36.8725 7.92 36.8725 9.82667C36.8725 11.5333 37.7988 14.0667 41.4526 14.0667Z" fill="currentColor"/>
</svg>
