<svg viewBox="0 0 100 32" fill="none" xmlns="http://www.w3.org/2000/svg">
<path d="M14.2686 7.49259V10.5035C12.959 8.33284 10.9255 7.00244 8.40954 7.00244C3.03295 7.00244 0 11.0987 0 16.5953C0 22.1269 3.06741 26.3632 8.47847 26.3632C10.9944 26.3632 12.9934 25.0328 14.2686 22.8622V25.8731H18.4734V7.49259H14.2686ZM9.30564 22.7221C6.23823 22.7221 4.48049 19.8163 4.48049 16.5953C4.48049 13.4444 6.20376 10.6785 9.37457 10.6785C11.9939 10.6785 14.2342 12.6041 14.2342 16.5253C14.2342 20.3764 12.0973 22.7221 9.30564 22.7221Z" fill="currentColor"/>
<path d="M21.6133 2.80083C21.6133 4.3763 22.7506 5.53165 24.336 5.53165C25.8525 5.53165 27.0588 4.3763 27.0588 2.80083C27.0588 1.22537 25.8525 0 24.336 0C22.7506 0 21.6133 1.22537 21.6133 2.80083ZM22.0958 7.49223V25.8727H26.5763V7.49223H22.0958Z" fill="currentColor"/>
<path d="M34.834 12.0442V7.49283H30.3535V25.8733H34.834V15.3702C34.834 12.6744 36.6607 11.589 38.3839 11.589C39.3834 11.589 40.4174 11.8691 40.9688 12.0792V7.17773C38.0393 7.17773 35.6267 8.96327 34.834 12.0442Z" fill="currentColor"/>
<path d="M42.0625 13.0948C42.0625 18.8015 45.9226 22.8627 51.4715 22.8627C57.0549 22.8627 60.8809 18.8015 60.8809 13.0948C60.8809 7.49314 57.0549 3.50195 51.4715 3.50195C45.9226 3.50195 42.0625 7.49314 42.0625 13.0948ZM56.4001 13.0948C56.4001 16.6659 54.5045 19.2216 51.4715 19.2216C48.4041 19.2216 46.543 16.6659 46.543 13.0948C46.543 9.66379 48.4041 7.17805 51.4715 7.17805C54.5045 7.17805 56.4001 9.66379 56.4001 13.0948Z" fill="currentColor"/>
<path d="M73.3741 7.00244C70.7547 7.00244 68.6178 8.57791 67.4805 11.0987V7.49259H63V31.9999H67.4805V22.5821C68.7557 24.8578 71.1338 26.3632 73.6498 26.3632C78.5439 26.3632 81.9559 22.4771 81.9559 16.9104C81.9559 11.0637 78.406 7.00244 73.3741 7.00244ZM72.5814 22.9322C69.5829 22.9322 67.4805 20.3764 67.4805 16.7353C67.4805 12.9892 69.5829 10.3634 72.5814 10.3634C75.442 10.3634 77.4754 13.0592 77.4754 16.8754C77.4754 20.4464 75.442 22.9322 72.5814 22.9322Z" fill="currentColor"/>
<path d="M83.3867 19.5012C83.3867 22.8272 86.2818 26.3632 92.072 26.3632C97.8966 26.3632 99.999 22.8972 99.999 20.2014C99.999 16.0701 95.2083 15.3349 92.0031 14.7047C89.8317 14.3196 88.4531 14.0045 88.4531 12.7442C88.4531 11.3087 90.0041 10.3985 91.6584 10.3985C93.8986 10.3985 94.7603 11.9739 94.8292 13.6544H99.3097C99.3097 10.9236 97.4141 7.00244 91.555 7.00244C86.4886 7.00244 83.9726 9.90831 83.9726 13.0242C83.9726 17.4706 88.8322 17.9257 92.0375 18.5559C93.8986 18.906 95.5185 19.3261 95.5185 20.6915C95.5185 22.0569 93.9331 22.9672 92.2443 22.9672C90.6589 22.9672 87.8672 22.0569 87.8672 19.5012H83.3867Z" fill="currentColor"/>
</svg>
