<svg xmlns="http://www.w3.org/2000/svg" version="1.1" viewBox="0 0 400 126.90863579">
  <g fill-rule="evenodd">
    <path fill="#04bc6c" d="M86.5 12v3.167H108v21.666h6.333v-28H86.5V12M7.444 14.778c-.061.061-.111 22.786-.111 50.5v50.389H108.5V48.833h-6.167V109.5H13.667V21.167h60.5v-6.5H40.861c-18.318 0-33.355.05-33.417.111" />
    <path fill="currentColor" d="M36 65.167V91h44.167V76.5h-27v-6.333h27v-9.834h-27v-6.5h27v-14.5H36v25.834m339.421-21.376c-.456.035-.906.125-1 .199-.094.075-.602.188-1.129.251-.527.064-.959.178-.959.252 0 .075-.259.185-.576.245-.317.059-.786.217-1.042.351-.256.133-.553.243-.659.243-.107.001-.22.058-.25.126-.031.069-.38.299-.776.512-1.255.674-3.316 2.615-3.748 3.53-.065.137-.272.505-.46.816-2.425 4.011-1.312 11.439 2.16 14.424.22.189.52.464.667.611.412.411 2.573 1.816 2.794 1.816.108 0 .221.056.251.125.071.159 1.53.875 1.783.875.104 0 .19.069.19.153 0 .084.243.207.541.271.298.065.69.221.871.347.181.126.499.229.708.229.209 0 .38.069.38.153 0 .084.232.204.515.267 2.004.44 5.807 3.063 6.093 4.203.147.588-.015 2.715-.217 2.845-.099.063-.23.276-.292.473-.061.198-.296.405-.522.462-.226.057-.411.174-.411.261 0 .087-.375.207-.833.268-.458.061-.833.176-.833.256 0 .08-.713.145-1.584.145-.871 0-1.583-.066-1.583-.147 0-.081-.488-.2-1.083-.264-.596-.063-1.084-.178-1.084-.254 0-.077-.3-.19-.666-.252-.367-.062-.667-.172-.667-.246 0-.073-.262-.182-.583-.243-.321-.06-.584-.173-.584-.25 0-.078-.187-.188-.416-.246-.229-.057-.417-.178-.417-.268 0-.09-.101-.163-.224-.163-.124 0-.398-.15-.609-.334-.212-.183-.478-.333-.591-.333-.114 0-.25-.113-.303-.25-.196-.51-1.592.054-1.603.648-.002.081-.191.321-.42.533-.229.213-.417.454-.417.537 0 .082-.168.342-.375.577-.715.815-1.125 1.317-1.125 1.378 0 .034-.375.563-.833 1.177-.837 1.12-.932 1.341-.706 1.652.192.264 2.656 1.915 2.858 1.915.1 0 .181.073.181.163 0 .09.188.211.417.268.229.058.417.166.417.24 0 .075.225.185.5.245.275.061.5.179.5.264 0 .084.093.156.208.159.115.003.508.15.875.327.367.177.835.325 1.042.328.206.003.375.076.375.162 0 .086.356.209.791.273.436.064.833.18.883.257.05.078.859.191 1.798.253.938.061 1.745.175 1.793.253.114.184 2.688.184 2.802 0 .048-.078.853-.188 1.789-.245.935-.057 1.744-.17 1.797-.252.053-.082.451-.201.884-.265.434-.064.827-.178.874-.254.047-.076.348-.188.67-.248.322-.061.585-.176.585-.256 0-.08.225-.195.5-.256.275-.06.5-.179.5-.263 0-.084.078-.153.174-.153.621 0 3.826-3.17 3.826-3.784 0-.119.069-.216.154-.216.084 0 .203-.225.263-.5s.175-.5.256-.5c.08 0 .197-.282.26-.625.064-.344.181-.668.261-.72.08-.053.193-.711.251-1.464.058-.753.169-1.409.247-1.457.185-.114.185-2.401 0-2.401-.078 0-.19-.614-.247-1.363-.058-.75-.172-1.406-.254-1.459-.082-.052-.202-.338-.266-.636-.065-.298-.181-.542-.258-.542-.077 0-.19-.225-.25-.5s-.179-.5-.263-.5c-.085 0-.154-.096-.154-.214 0-.532-2.739-3.286-3.268-3.286-.108 0-.239-.113-.292-.25-.053-.138-.211-.25-.351-.25-.14 0-.255-.069-.255-.153 0-.085-.225-.203-.5-.264-.275-.06-.5-.173-.5-.25 0-.077-.225-.189-.5-.25-.275-.06-.5-.179-.5-.263 0-.084-.094-.154-.209-.154-.114-.001-.409-.106-.655-.235-.246-.128-.677-.283-.958-.345-.282-.062-.512-.182-.512-.266 0-.084-.12-.153-.266-.153-.268 0-1.082-.317-1.956-.761-.259-.131-.54-.239-.624-.239-.958 0-4.149-2.118-4.899-3.253-.951-1.437.199-4.261 1.912-4.693.229-.058.47-.188.536-.288.167-.257 5.599-.252 5.762.005.065.103.437.241.827.306.39.065.708.177.708.249 0 .072.3.179.667.238.367.058.667.174.667.258 0 .083.218.199.486.258.267.059.527.215.578.347.126.33 1.102.32 1.102-.011 0-.137.058-.25.127-.25.126 0 .223-.151.705-1.096.136-.268.342-.586.458-.707.116-.121.21-.328.21-.459s.075-.238.167-.238c.092 0 .167-.108.167-.241s.093-.302.208-.375c.115-.074.396-.507.625-.964.229-.457.492-.923.583-1.036.092-.113.261-.317.375-.454.447-.534.17-1.214-.695-1.709-.998-.571-2.788-1.391-3.596-1.648-.505-.16-1.067-.354-1.25-.43-.33-.136-1.469-.36-3.25-.638-.909-.142-4.652-.17-6.246-.047m-244.81.653c-.061.062-.111 9.474-.111 20.917v20.806H156V78h-15.667v-8s13.60373.0033 13.60621.0039L154 61.667h-13.667v-9.334H155v-8h-12.139c-6.676 0-12.189.05-12.25.111m31.222 20.806v20.917h9.5V73.5c0-11.739.069-13.75.417-12.167 3.08916 5.875712 6.21836 11.102165 8.989 16.292.139.446 3.876.593 4.223.167.15-.185.688-1.151 1.646-2.959 2.47723-4.486077 5.0102-9.175185 7.23-13.208.219-.483.25.812.288 12l.043 12.542h9.498V44.333h-9.657c-3.46015 6.984182-7.24781 13.800816-10.771 20.75-.134.716-.342.751-.489.084-3.77889-7.170692-8.07092-14.562985-11.469-20.834h-9.448V65.25m48.834 0v20.917h25.506l-.045-4.042-.045-4.042-7.958-.043-7.958-.043V70l6.625-.002c3.643-.002 6.793-.048 7-.103l.375-.101v-8.127h-14v-9.334h15v-8h-24.5V65.25M242 65.247v20.92h9.5l.004-9.292.004-9.292c4.02425 6.451005 7.4215 12.904018 10.993 18.584h5.333c5.736 0 5.897-.028 5.124-.87-3.27207-4.95458-6.39098-10.428543-9.791-15.372 0-.133-.103-.302-.229-.375-.452-.264-.504-.883-.074-.889.212-.003.686-.151 1.053-.328.366-.177.721-.324.789-.327.139-.007 1.708-.955 2.21-1.336.992-.753 2.751-2.748 2.751-3.121 0-.118.069-.216.153-.216.084 0 .203-.225.263-.5.061-.275.173-.5.25-.5.077 0 .193-.243.258-.541.065-.298.185-.585.267-.637.082-.053.196-.597.253-1.209.057-.612.168-1.113.246-1.113.079 0 .143-.862.143-1.916 0-1.055-.064-1.917-.143-1.917-.079 0-.188-.436-.244-.97-.056-.533-.216-1.19-.356-1.458-.14-.269-.255-.62-.256-.78-.001-.161-.068-.292-.15-.292-.081 0-.195-.187-.253-.417-.057-.229-.178-.416-.268-.416-.09 0-.163-.098-.163-.216 0-.413-2.6-3.284-2.974-3.284-.106 0-.193-.07-.193-.156 0-.085-.169-.208-.375-.272-.206-.065-.413-.172-.458-.239-.136-.198-1.465-.833-1.744-.833-.141 0-.256-.072-.256-.159 0-.088-.282-.21-.625-.272-.344-.062-.701-.173-.794-.246-.54-.424-2.882-.548-11.373-.604L242 44.328v20.919m35.5.003v20.917h9.5V44.333h-9.5V65.25m14.278-20.806c-.061.062-.111 1.862-.111 4v3.889H300v33.834h9.5V52.333h8v-8h-12.806c-7.043 0-12.855.05-12.916.111m30.088 14.31c.037 10.632.101 14.456.242 14.544.105.065.245.55.311 1.077.066.527.176.958.246.958.069 0 .174.3.232.667.059.367.173.667.253.667.08 0 .195.262.256.583.06.321.181.583.268.583.088 0 .159.107.159.238s.094.339.209.461c.114.123.356.512.536.865.181.353.425.678.542.723.117.045.213.176.213.29 0 .272 2.485 2.757 2.757 2.757.114 0 .245.096.29.213.045.117.371.361.726.542.354.18.681.371.727.424.244.28 2.522 1.321 2.891 1.321.141 0 .3.07.353.157.054.086.452.209.885.273.433.064.83.18.881.259.051.079.801.187 1.667.24.865.053 1.731.173 1.923.265.193.093.867.129 1.5.08 2.424-.185 4.636-.457 4.806-.592.098-.077.534-.192.969-.255.436-.063.792-.175.792-.25 0-.074.3-.183.667-.241.366-.059.666-.181.666-.272 0-.09.116-.164.257-.164.319 0 2.178-.994 3.028-1.62 1.247-.916 2.88-2.38 2.881-2.583.001-.066.207-.339.459-.608.68-.725 1.042-1.232 1.042-1.459 0-.112.056-.228.125-.258.159-.071.875-1.529.875-1.782 0-.105.074-.19.165-.19.09 0 .212-.3.271-.667.059-.367.165-.667.236-.667.072 0 .183-.393.248-.875.064-.481.203-.98.307-1.109.138-.169.203-4.181.239-14.627l.049-14.394-4.716.044-4.716.045-.083 13.736c-.065 10.781-.128 13.751-.292 13.805-.114.039-.208.187-.208.329 0 .305-.693 1.771-.875 1.852-.069.03-.125.146-.125.258 0 .546-2.235 2.77-2.784 2.77-.119 0-.216.061-.216.135 0 .179-1.58.865-1.992.865-.177 0-.368.075-.425.166-.126.205-3.527.225-3.653.022-.049-.079-.391-.193-.76-.252-.368-.059-.67-.173-.67-.254 0-.08-.194-.195-.431-.254-.485-.122-.563-.18-1.827-1.358-.5-.466-.909-.934-.909-1.042 0-.107-.073-.195-.163-.195-.09 0-.211-.187-.268-.417-.058-.229-.166-.416-.24-.416-.075 0-.185-.225-.245-.5-.061-.275-.177-.5-.258-.5-.081 0-.197-.375-.258-.834-.061-.458-.176-.833-.255-.833-.079 0-.163-6.063-.187-13.542l-.042-13.541-4.801-.045-4.8-.044.05 14.426M257.5 52.5c0 .092.236.167.523.167.946 0 3.144 1.371 3.144 1.961 0 .098.08.204.177.237.78881 1.639194.61362 3.309388-.177 4.821-.40195.672605-1.13448 1.24765-1.667 1.629-.32462.277468-2.414.685-5.187.685H251.5v-9.667h3c1.889 0 3 .062 3 .167" />
  </g>
</svg>
