<svg viewBox="0 0 120 40" fill="none" xmlns="http://www.w3.org/2000/svg">
  <path fill-rule="evenodd" clip-rule="evenodd" d="M107.556 11.2611L120 31.1288H95.1113L107.556 11.2611ZM107.556 19.693L112.229 26.7537H102.883L107.556 19.693Z" fill="currentColor" />
  <path d="M90.3423 13.396L90.3375 13.392C90.3375 13.392 90.2836 13.3394 90.2884 13.3442C88.6868 11.8211 86.5964 10.9708 84.3956 10.9415H84.2654C81.7945 10.9449 79.5589 11.9758 77.9635 13.6285L77.7173 13.8835L77.4576 13.6121L77.2292 13.396L77.2237 13.392C77.2237 13.392 77.1705 13.3394 77.1753 13.3442C75.5731 11.8211 73.4833 10.9708 71.2825 10.9415H71.1516C66.323 10.9477 62.3897 14.8803 62.3843 19.7088V31.1249H66.8058V19.7075C66.8058 17.3116 68.755 15.3623 71.1509 15.3623C73.5413 15.3623 75.4871 17.3027 75.4967 19.6911V31.1249H79.9196V19.7075C79.9196 17.3116 81.8688 15.3623 84.2647 15.3623C86.6551 15.3623 88.6009 17.3027 88.6098 19.6911V31.1249H93.032V19.7006C93.032 17.3389 92.0959 15.1939 90.5754 13.6176L90.5707 13.6121L90.3423 13.396Z" fill="currentColor" />
  <path d="M57.8183 10.9415H50.1262C46.7356 10.9415 43.9763 13.7008 43.9763 17.0914C43.9763 20.4827 46.7356 23.2412 50.1262 23.2412H53.6879C54.639 23.2412 55.4122 24.0144 55.4122 24.9655C55.4122 25.9159 54.639 26.6891 53.6879 26.6891H45.9958V31.1113H53.7765C57.1351 31.0649 59.8541 28.2893 59.8309 24.9246C59.8084 21.5599 57.0526 18.8211 53.6879 18.8204H50.1262C49.173 18.8204 48.3985 18.0452 48.3985 17.0921C48.3985 16.1396 49.173 15.3651 50.1262 15.3651H57.8183V10.9415Z" fill="currentColor" />
  <path d="M41.2389 11.0054H36.8171V31.1453H41.2389V11.0054Z" fill="currentColor" />
  <path d="M41.2389 0H36.8171V4.75334H41.2389V0Z" fill="currentColor" />
  <path d="M34.6547 12.0195C33.5406 11.337 32.2486 10.9565 30.9361 10.9415C30.9361 10.9415 30.8243 10.9415 30.825 10.9415C30.1807 10.9415 29.5391 11.0254 28.9173 11.1925L28.888 11.2006C25.7285 12.0754 23.5243 14.9696 23.5222 18.2505V31.1256H27.9492L28.0398 17.6177C28.0405 17.542 28.0521 17.4664 28.0746 17.3941V17.3934C28.3303 16.5712 28.9323 15.9112 29.7273 15.5826C30.238 15.3705 30.7827 15.314 31.3029 15.3999C31.3029 15.3999 31.5457 15.4401 31.5832 15.4462C31.5866 15.4469 31.59 15.4476 31.5927 15.4483C31.5941 15.4483 31.5948 15.4483 31.5961 15.4489C31.667 15.4674 31.7366 15.4892 31.8054 15.5137C31.9616 15.569 32.1136 15.6385 32.2588 15.721C32.2595 15.7217 32.2602 15.7216 32.2609 15.7223C32.2636 15.7237 32.2663 15.7257 32.2691 15.7278C32.2807 15.736 32.3127 15.7585 32.3127 15.7585L34.6547 12.0195Z" fill="currentColor" />
  <path fill-rule="evenodd" clip-rule="evenodd" d="M4.44263 40V29.4177L4.95738 29.7231C6.46212 30.6149 8.21776 31.1269 10.092 31.1269C15.6624 31.1269 20.1848 26.6046 20.1848 21.0343C20.1848 15.4639 15.6624 10.9415 10.092 10.9415C4.52171 10.9415 0 15.4639 0 21.0343C0 21.1549 0.00204308 21.2756 0.00613389 21.4017V40H4.44263ZM10.092 15.378C6.97075 15.378 4.43648 17.913 4.43648 21.0343C4.43648 24.1556 6.97075 26.6898 10.092 26.6898C13.214 26.6898 15.7483 24.1556 15.7483 21.0343C15.7483 17.913 13.214 15.378 10.092 15.378Z" fill="currentColor" />
</svg>
