<svg xmlns="http://www.w3.org/2000/svg" version="1.1" viewBox="0 0 400 116.87388988">
  <g fill-rule="evenodd">
    <path fill="currentColor" d="M302.75 21.277c-3.758.403-6.927.766-7.042.806-.338.119-.299 57.943.041 60 1.401 8.469 7.833 12.408 17.584 10.769 2.235-.375 4.834-1.143 4.834-1.428 0-.096-.227-.962-.504-1.924-.277-.963-.805-2.875-1.175-4.25-.369-1.375-.779-2.884-.911-3.353l-.24-.853-1.044.243c-1.782.415-2.994.078-3.581-.997-.279-.51-.298-2.18-.339-30.165l-.044-29.625-.373.022c-.205.012-3.448.352-7.206.755m27.833 0c-3.758.403-6.927.766-7.041.806-.273.096-.305 55.759-.034 58.75.492 5.434 2.975 9.347 7.073 11.151 3.526 1.551 9.409 1.578 14.044.063 1.572-.514 1.52-.379.948-2.431-.336-1.206-1.949-6.932-2.338-8.302-.068-.241-.175-.245-1.031-.044-1.28.301-1.823.282-2.651-.094-1.429-.648-1.297 2.376-1.347-31.051l-.044-29.625-.373.022c-.205.012-3.447.352-7.206.755M4.5 59.168V91.67l7.625-.043 7.625-.044.043-12.375.042-12.375h5.998l.429.792c.236.435 1.011 1.879 1.722 3.208.712 1.329 1.937 3.617 2.723 5.084.787 1.466 2.894 5.404 4.684 8.75 1.789 3.346 3.367 6.289 3.507 6.541l.253.459h8.591c5.106 0 8.591-.062 8.591-.153 0-.085-1.472-2.616-3.272-5.625-8.951-14.965-12.924-21.653-12.95-21.796-.015-.087.791-.595 1.792-1.129 7.8-4.165 11.093-9.966 10.424-18.363-.803-10.063-6.411-15.394-18.244-17.339-2.857-.47-6.663-.595-18.096-.595H4.5v32.501m248.481-31.626c-.281.912-2.174 7.185-4.239 14.041-.662 2.2-1.932 6.4-2.821 9.334-.889 2.933-2.053 6.795-2.586 8.583-.534 1.788-1.734 5.762-2.666 8.833-.932 3.071-2.058 6.784-2.502 8.25-3.535 11.686-4.5 14.9-4.5 14.987 0 .055 3.579.08 7.953.057l7.954-.044 1.627-6.916c.895-3.805 1.629-6.936 1.63-6.959.001-.023 4.296-.041 9.544-.04h9.542l.975 4.208c.537 2.314 1.277 5.464 1.644 6.999l.668 2.792h8.166c6.464 0 8.149-.044 8.086-.209-.078-.202-2.967-9.727-5.637-18.583-.725-2.406-1.925-6.381-2.665-8.833s-1.875-6.221-2.522-8.375c-.646-2.155-1.718-5.717-2.381-7.917-3.164-10.502-4.002-13.292-5.115-17.042l-1.2-4.041H253.25l-.269.875M127.5 29.594c-.138.031-3.118.373-6.623.762l-6.372.707-.044 5.343-.044 5.344-3.5.083-3.5.084-.044 5.121-.044 5.122 3.544.045 3.544.045.09 13.5c.095 14.194.094 14.168.905 16.968 1.245 4.298 3.726 7.332 7.315 8.947 5.446 2.451 14.064 1.847 19.813-1.388 1.929-1.086 2.019-.42-.775-5.749l-2.458-4.686-.974.491c-3.921 1.98-7.366 1.37-8.547-1.513-.369-.902-.369-.916-.417-13.778l-.047-12.875h4.844c3.725 0 4.862-.048 4.919-.209.06-.165 1.582-9.855 1.582-10.068 0-.031-2.55-.057-5.667-.057h-5.667V29.5l-.791.019c-.436.011-.904.045-1.042.075m-97.301 8.372c4.486 1.22 6.353 3.812 6.326 8.784-.039 6.943-2.979 9.243-11.983 9.375l-4.709.069V37.465l4.542.076c3.932.067 4.714.124 5.824.425m233.454 5.451c.641 2.658 2.099 8.733 3.242 13.5 1.142 4.766 2.129 8.873 2.192 9.125l.116.458h-13.739l.117-.458c.064-.252.63-2.634 1.258-5.292s1.788-7.533 2.577-10.833c.79-3.3 1.75-7.33 2.135-8.956.445-1.88.743-2.85.819-2.666.065.158.643 2.463 1.283 5.122M77.096 40.601c-13.754 2.569-21.39 16.85-18.078 33.809C61.05 84.811 68.367 91.591 79 92.924c8.341 1.045 15.783-.849 22.465-5.718l1.215-.885-.376-.536c-1.218-1.729-5.652-7.618-5.737-7.618-.055 0-.825.439-1.709.976-8.006 4.862-16.608 4.232-19.572-1.434-1.063-2.034-2.096-6.244-1.607-6.554.137-.086 6.665-.151 15.353-.152 11.675-.002 15.143-.049 15.24-.205.255-.412.129-8.786-.159-10.631-1.679-10.74-7.329-17.216-16.95-19.423-1.75-.402-8.192-.493-10.067-.143m124.987.148c-13.209 2.333-20.637 14.807-18.661 31.334 1.612 13.475 11.146 21.524 24.911 21.029 14.238-.512 22.896-9.853 23.446-25.296.677-19.023-11.646-30.255-29.696-27.067m-29.083.15c-3.854 1.159-7.342 4.663-9.018 9.059-.637 1.672-.604 1.798-1.497-5.625-.105-.871-.245-1.77-.31-2l-.119-.416H149.25v49.666l7.375.044 7.375.043V66.977l.423-1.667c2.144-8.46 5.922-11.423 12.956-10.161.712.128 1.341.187 1.397.13.104-.103.984-5.149 1.795-10.279.239-1.513.473-2.988.52-3.279.105-.648.085-.661-1.533-.971-2.004-.383-5.016-.315-6.558.149m172.452 1.058c-.039.069.621 2.376 1.466 5.126.844 2.75 2.152 7.025 2.906 9.5 3.587 11.78 4.442 14.577 5.425 17.75.582 1.879 1.488 4.842 2.014 6.584.526 1.741 1.311 4.329 1.744 5.75.433 1.42.95 3.127 1.147 3.791l.36 1.209h2.493c1.371 0 2.493.044 2.493.098 0 .054-.352.78-.782 1.613-2.548 4.933-5.996 7.091-13.377 8.371-1.936.336-1.827.26-1.659 1.159.076.411.406 2.494.732 4.628.327 2.134.638 4.098.692 4.363l.098.482 1.638-.107c9.03-.592 16.722-4.431 21.42-10.691 2.853-3.802 3.685-5.857 8.325-20.583.881-2.796 1.968-6.208 2.414-7.583.447-1.375 2.286-7.15 4.088-12.834 1.801-5.683 3.823-12.058 4.492-14.166.669-2.109 1.267-4.002 1.329-4.209l.112-.375h-7.599c-5.928 0-7.617.046-7.678.209-.086.232-7.86 32.182-8.961 36.832-.386 1.627-.738 2.958-.784 2.958-.046 0-.635-2.493-1.309-5.541-.674-3.047-2.664-12.028-4.422-19.958l-3.196-14.416-7.776-.044c-4.276-.023-7.807.014-7.845.084M84.356 50.508c3.148 1.06 5.077 4.123 5.401 8.575.047.642.119 1.598.161 2.125l.077.959H73.349l.086-.875c.843-8.577 5.073-12.754 10.921-10.784m125.936 1.173c4.312 1.484 6.075 5.83 6.081 14.986.007 10.091-2.395 14.872-7.786 15.501-4.774.556-7.974-1.87-9.232-7.001-1.449-5.911-1.023-15.091.894-19.25 1.802-3.911 5.929-5.651 10.043-4.236" />
  </g>
</svg>
